<svg width="981" height="756" viewBox="0 0 981 756" fill="none" xmlns="http://www.w3.org/2000/svg">
<path d="M70.82 1.99994C37.13 8.50994 7.65998 39.7099 2.10998 74.5399C0.769978 82.7699 -2.14663e-05 163.93 -2.14663e-05 312.84C-2.14663e-05 557.84 -0.190022 553.06 10.53 574.11C16.66 586.36 32.35 603.4 43.07 609.71C63.74 621.77 48.05 621 269.89 621.96L444.28 622.789C459.563 622.862 471.965 635.176 472.145 650.458L472.39 671.16L472.549 691.469C472.671 706.976 460.166 719.629 444.659 719.689L374.77 719.96L294.199 720.428C284.361 720.485 276.328 728.307 276.01 738.14V738.14V738.14C275.693 747.875 283.499 755.94 293.239 755.94H490H686.761C696.503 755.94 704.312 747.877 704 738.14V738.14V738.14C703.682 728.307 695.649 720.485 685.811 720.428L605.24 719.96L535.351 719.689C519.844 719.629 507.339 706.976 507.461 691.469L507.62 671.16L507.865 650.458C508.045 635.176 520.447 622.862 535.73 622.789L710.12 621.96C931.96 621 916.26 621.77 936.94 609.71C947.66 603.39 963.35 586.36 969.48 574.11C980.2 553.06 980.01 557.84 980.01 312.84C980.01 163.93 979.24 82.7699 977.91 74.5399C972.36 40.0899 946.33 11.7599 912.07 2.75995C902.12 0.269949 853.31 -0.110044 490.02 0.0799561C262.8 0.279956 75.61 1.04994 70.82 1.99994ZM910.33 39.14C922.2 44.12 931.58 53.1099 937.7 65.3599L940.592 71.0516C942.589 74.9816 943.63 79.3276 943.63 83.7359V309.98C943.63 574.7 944.97 554.02 927.55 571.25C909.56 589.05 952.43 587.52 490.19 587.52C39.43 587.52 71.58 588.48 55.89 574.89C51.49 571.25 45.55 563.98 42.49 559.19L41.0228 556.636C38.5963 552.412 37.3138 547.628 37.3021 542.756L36.75 313.8L36.3803 83.8483C36.3735 79.6114 37.3283 75.4281 39.1729 71.6138L42.11 65.5399C48.43 52.7199 58.57 43.1499 70.44 38.9399C76.18 36.8299 154.66 36.4499 490.58 36.2599C851.76 36.2699 904.39 36.65 910.33 39.14Z" fill="white"/>
<path d="M400.04 308.25C400.04 379.64 400.23 438.21 400.61 438.21C400.99 438.21 449.99 410.07 509.33 375.81C568.67 341.56 619.2 312.46 621.69 311.13C625.9 308.83 620.93 305.77 548 263.66C505.13 238.78 454.21 209.49 435.07 198.39L400.04 178.1V308.25Z" fill="white"/>
</svg>
